<svg width="59" height="59" viewBox="0 0 59 59" fill="none" xmlns="http://www.w3.org/2000/svg">
<path fill-rule="evenodd" clip-rule="evenodd" d="M44.25 29.5C44.25 29.989 44.0557 30.458 43.71 30.8037C43.3642 31.1495 42.8952 31.3438 42.4062 31.3438H21.0446L28.9616 39.2571C29.133 39.4286 29.269 39.6321 29.3618 39.856C29.4546 40.08 29.5023 40.3201 29.5023 40.5625C29.5023 40.8049 29.4546 41.045 29.3618 41.269C29.269 41.4929 29.133 41.6965 28.9616 41.8679C28.7902 42.0393 28.5867 42.1753 28.3627 42.2681C28.1387 42.3608 27.8987 42.4086 27.6562 42.4086C27.4138 42.4086 27.1738 42.3608 26.9498 42.2681C26.7258 42.1753 26.5223 42.0393 26.3509 41.8679L15.2884 30.8054C15.1167 30.6341 14.9804 30.4306 14.8875 30.2067C14.7945 29.9827 14.7467 29.7425 14.7467 29.5C14.7467 29.2575 14.7945 29.0174 14.8875 28.7934C14.9804 28.5694 15.1167 28.3659 15.2884 28.1946L26.3509 17.1321C26.6971 16.7859 27.1666 16.5914 27.6562 16.5914C28.1459 16.5914 28.6154 16.7859 28.9616 17.1321C29.3078 17.4783 29.5023 17.9479 29.5023 18.4375C29.5023 18.9271 29.3078 19.3967 28.9616 19.7429L21.0446 27.6563H42.4062C42.8952 27.6563 43.3642 27.8505 43.71 28.1963C44.0557 28.542 44.25 29.011 44.25 29.5Z" fill="black"/>
</svg>
